<svg aria-hidden="true" style="position: absolute; width: 0; height: 0; overflow: hidden;" version="1.1" xmlns="http://www.w3.org/2000/svg" xmlns:xlink="http://www.w3.org/1999/xlink">
<defs>
<symbol id="icon-exit" viewBox="0 0 32 32">
<path d="M4 4h6.667v-4h-6.667c-2.209 0-4 1.791-4 4v0 24c0 2.209 1.791 4 4 4v0h6.667v-4h-6.667z"></path>
<path d="M30.597 12.7l-6.115-6.115-2.828 2.829 4.551 4.549-19.539 0.036v4l19.6-0.036-4.621 4.621 2.828 2.829 6.116-6.115c0.845-0.846 1.368-2.014 1.368-3.304 0-1.286-0.519-2.451-1.36-3.296l0 0z"></path>
</symbol>
<symbol id="icon-courses" viewBox="0 0 32 32">
<path d="M22.667 18.667c0 0.736-0.597 1.333-1.333 1.333v0h-10.667c-0.736 0-1.333-0.597-1.333-1.333s0.597-1.333 1.333-1.333v0h10.667c0.736 0 1.333 0.597 1.333 1.333v0zM17.333 22.667h-6.667c-0.736 0-1.333 0.597-1.333 1.333s0.597 1.333 1.333 1.333v0h6.667c0.736 0 1.333-0.597 1.333-1.333s-0.597-1.333-1.333-1.333v0zM29.333 13.98v11.353c-0.005 3.68-2.987 6.662-6.666 6.667h-13.334c-3.68-0.005-6.662-2.987-6.667-6.666v-18.667c0.005-3.68 2.987-6.662 6.666-6.667h6.020c0.007-0 0.015-0 0.024-0 2.57 0 4.896 1.045 6.576 2.733l4.646 4.648c1.689 1.679 2.735 4.004 2.735 6.574 0 0.009 0 0.018-0 0.026v-0.001zM20.068 4.619c-0.408-0.395-0.868-0.74-1.368-1.023l-0.033-0.017v5.755c0 0.736 0.597 1.333 1.333 1.333v0h5.755c-0.3-0.533-0.645-0.993-1.043-1.402l0.001 0.002zM26.667 13.98c0-0.22-0.043-0.431-0.063-0.647h-6.604c-2.209 0-4-1.791-4-4v0-6.604c-0.216-0.020-0.428-0.063-0.647-0.063h-6.020c-2.209 0-4 1.791-4 4v0 18.667c0 2.209 1.791 4 4 4v0h13.333c2.209 0 4-1.791 4-4v0z"></path>
</symbol>
<symbol id="icon-admin" viewBox="0 0 32 32">
<path d="M25.333 5.333h-1.467c-0.646-3.063-3.325-5.329-6.533-5.333h-2.667c-3.209 0.004-5.887 2.271-6.526 5.29l-0.008 0.044h-1.467c-3.68 0.005-6.662 2.987-6.667 6.666v13.334c0.005 3.68 2.987 6.662 6.666 6.667h18.667c3.68-0.005 6.662-2.987 6.667-6.666v-13.334c-0.005-3.68-2.987-6.662-6.666-6.667h-0zM14.667 2.667h2.667c1.725 0.007 3.191 1.105 3.746 2.639l0.009 0.028h-10.176c0.564-1.562 2.030-2.659 3.754-2.667h0.001zM6.667 8h18.667c2.209 0 4 1.791 4 4v0 4h-26.667v-4c0-2.209 1.791-4 4-4v0zM25.333 29.333h-18.667c-2.209 0-4-1.791-4-4v0-6.667h12v1.333c0 0.736 0.597 1.333 1.333 1.333s1.333-0.597 1.333-1.333v0-1.333h12v6.667c0 2.209-1.791 4-4 4v0z"></path>
</symbol>
<symbol id="icon-members" viewBox="0 0 32 32">
<path d="M16 21.333c-2.946 0-5.333-2.388-5.333-5.333s2.388-5.333 5.333-5.333c2.946 0 5.333 2.388 5.333 5.333v0c0 2.946-2.388 5.333-5.333 5.333v0zM16 13.333c-1.473 0-2.667 1.194-2.667 2.667s1.194 2.667 2.667 2.667c1.473 0 2.667-1.194 2.667-2.667v0c0-1.473-1.194-2.667-2.667-2.667v0zM24 30.667c0-4.418-3.582-8-8-8s-8 3.582-8 8v0c0 0.736 0.597 1.333 1.333 1.333s1.333-0.597 1.333-1.333v0c0-2.946 2.388-5.333 5.333-5.333s5.333 2.388 5.333 5.333v0c0 0.736 0.597 1.333 1.333 1.333s1.333-0.597 1.333-1.333v0zM24 10.667c-2.946 0-5.333-2.388-5.333-5.333s2.388-5.333 5.333-5.333c2.946 0 5.333 2.388 5.333 5.333v0c0 2.946-2.388 5.333-5.333 5.333v0zM24 2.667c-1.473 0-2.667 1.194-2.667 2.667s1.194 2.667 2.667 2.667c1.473 0 2.667-1.194 2.667-2.667v0c0-1.473-1.194-2.667-2.667-2.667v0zM32 20c-0.005-4.416-3.584-7.995-8-8h-0c-0.736 0-1.333 0.597-1.333 1.333s0.597 1.333 1.333 1.333v0c2.946 0 5.333 2.388 5.333 5.333v0c0 0.736 0.597 1.333 1.333 1.333s1.333-0.597 1.333-1.333v0zM8 10.667c-2.946 0-5.333-2.388-5.333-5.333s2.388-5.333 5.333-5.333c2.946 0 5.333 2.388 5.333 5.333v0c0 2.946-2.388 5.333-5.333 5.333v0zM8 2.667c-1.473 0-2.667 1.194-2.667 2.667s1.194 2.667 2.667 2.667c1.473 0 2.667-1.194 2.667-2.667v0c0-1.473-1.194-2.667-2.667-2.667v0zM2.667 20c0-2.946 2.388-5.333 5.333-5.333v0c0.736 0 1.333-0.597 1.333-1.333s-0.597-1.333-1.333-1.333v0c-4.416 0.005-7.995 3.584-8 8v0c0 0.736 0.597 1.333 1.333 1.333s1.333-0.597 1.333-1.333v0z"></path>
</symbol>

<symbol id="icon-mentors" viewBox="0 0 40 40" >
<svg xmlns="http://www.w3.org/2000/svg" width="40" height="40" fill="currentColor" class="bi bi-mortarboard" viewBox="0 0 16 16">
  <path d="M8.211 2.047a.5.5 0 0 0-.422 0l-7.5 3.5a.5.5 0 0 0 .025.917l7.5 3a.5.5 0 0 0 .372 0L14 7.14V13a1 1 0 0 0-1 1v2h3v-2a1 1 0 0 0-1-1V6.739l.686-.275a.5.5 0 0 0 .025-.917l-7.5-3.5ZM8 8.46 1.758 5.965 8 3.052l6.242 2.913L8 8.46Z"/>
  <path d="M4.176 9.032a.5.5 0 0 0-.656.327l-.5 1.7a.5.5 0 0 0 .294.605l4.5 1.8a.5.5 0 0 0 .372 0l4.5-1.8a.5.5 0 0 0 .294-.605l-.5-1.7a.5.5 0 0 0-.656-.327L8 10.466 4.176 9.032Zm-.068 1.873.22-.748 3.496 1.311a.5.5 0 0 0 .352 0l3.496-1.311.22.748L8 12.46l-3.892-1.556Z"/>
</svg>
</symbol>

<symbol id="icon-guide" viewBox="0 0 40 40"  >
 <svg xmlns="http://www.w3.org/2000/svg" width="40" height="40" fill="currentColor" class="bi bi-book" viewBox="0 0 16 16">
 <path d="M1 2.828c.885-.37 2.154-.769 3.388-.893 1.33-.134 2.458.063 3.112.752v9.746c-.935-.53-2.12-.603-3.213-.493-1.18.12-2.37.461-3.287.811V2.828zm7.5-.141c.654-.689 1.782-.886 3.112-.752 1.234.124 2.503.523 3.388.893v9.923c-.918-.35-2.107-.692-3.287-.81-1.094-.111-2.278-.039-3.213.492V2.687zM8 1.783C7.015.936 5.587.81 4.287.94c-1.514.153-3.042.672-3.994 1.105A.5.5 0 0 0 0 2.5v11a.5.5 0 0 0 .707.455c.882-.4 2.303-.881 3.68-1.02 1.409-.142 2.59.087 3.223.877a.5.5 0 0 0 .78 0c.633-.79 1.814-1.019 3.222-.877 1.378.139 2.8.62 3.681 1.02A.5.5 0 0 0 16 13.5v-11a.5.5 0 0 0-.293-.455c-.952-.433-2.48-.952-3.994-1.105C10.413.809 8.985.936 8 1.783z"/>
</svg></symbol>

<symbol id="icon-notification" viewBox="0 0 32 32">
<svg xmlns="http://www.w3.org/2000/svg" width="34" height="34" fill="currentColor" class="bi bi-bell" viewBox="0 0 16 16">
<path d="M8 16a2 2 0 0 0 2-2H6a2 2 0 0 0 2 2zM8 1.918l-.797.161A4.002 4.002 0 0 0 4 6c0 .628-.134 2.197-.459 3.742-.16.767-.376 1.566-.663 2.258h10.244c-.287-.692-.502-1.49-.663-2.258C12.134 8.197 12 6.628 12 6a4.002 4.002 0 0 0-3.203-3.92L8 1.917zM14.22 12c.223.447.481.801.78 1H1c.299-.199.557-.553.78-1C2.68 10.2 3 6.88 3 6c0-2.42 1.72-4.44 4.005-4.901a1 1 0 1 1 1.99 0A5.002 5.002 0 0 1 13 6c0 .88.32 4.2 1.22 6z"/>
</svg>
</symbol>

<symbol id="password-eye-slash" viewBox="0 0 32 32">
<svg xmlns="http://www.w3.org/2000/svg" width="16" height="16" fill="currentColor" class="bi bi-eye-slash-fill" viewBox="0 0 16 16">
  <path d="m10.79 12.912-1.614-1.615a3.5 3.5 0 0 1-4.474-4.474l-2.06-2.06C.938 6.278 0 8 0 8s3 5.5 8 5.5a7.029 7.029 0 0 0 2.79-.588zM5.21 3.088A7.028 7.028 0 0 1 8 2.5c5 0 8 5.5 8 5.5s-.939 1.721-2.641 3.238l-2.062-2.062a3.5 3.5 0 0 0-4.474-4.474L5.21 3.089z"/>
  <path d="M5.525 7.646a2.5 2.5 0 0 0 2.829 2.829l-2.83-2.829zm4.95.708-2.829-2.83a2.5 2.5 0 0 1 2.829 2.829zm3.171 6-12-12 .708-.708 12 12-.708.708z"/>
</svg>
</symbol>

<symbol id="password-eye-fill" viewBox="0 0 32 32">
<svg xmlns="http://www.w3.org/2000/svg" width="16" height="16" fill="currentColor" class="bi bi-eye-fill" viewBox="0 0 16 16">
  <path d="M10.5 8a2.5 2.5 0 1 1-5 0 2.5 2.5 0 0 1 5 0z"/>
  <path d="M0 8s3-5.5 8-5.5S16 8 16 8s-3 5.5-8 5.5S0 8 0 8zm8 3.5a3.5 3.5 0 1 0 0-7 3.5 3.5 0 0 0 0 7z"/>
</svg>
</symbol>


</defs>
</svg>


