<svg aria-hidden="true" style="position: absolute; width: 0; height: 0; overflow: hidden;" version="1.1" xmlns="http://www.w3.org/2000/svg" xmlns:xlink="http://www.w3.org/1999/xlink">
<defs>
<symbol id="icon-courses" viewBox="0 0 32 32">
<path d="M22.667 18.667c0 0.736-0.597 1.333-1.333 1.333v0h-10.667c-0.736 0-1.333-0.597-1.333-1.333s0.597-1.333 1.333-1.333v0h10.667c0.736 0 1.333 0.597 1.333 1.333v0zM17.333 22.667h-6.667c-0.736 0-1.333 0.597-1.333 1.333s0.597 1.333 1.333 1.333v0h6.667c0.736 0 1.333-0.597 1.333-1.333s-0.597-1.333-1.333-1.333v0zM29.333 13.98v11.353c-0.005 3.68-2.987 6.662-6.666 6.667h-13.334c-3.68-0.005-6.662-2.987-6.667-6.666v-18.667c0.005-3.68 2.987-6.662 6.666-6.667h6.020c0.007-0 0.015-0 0.024-0 2.57 0 4.896 1.045 6.576 2.733l4.646 4.648c1.689 1.679 2.735 4.004 2.735 6.574 0 0.009 0 0.018-0 0.026v-0.001zM20.068 4.619c-0.408-0.395-0.868-0.74-1.368-1.023l-0.033-0.017v5.755c0 0.736 0.597 1.333 1.333 1.333v0h5.755c-0.3-0.533-0.645-0.993-1.043-1.402l0.001 0.002zM26.667 13.98c0-0.22-0.043-0.431-0.063-0.647h-6.604c-2.209 0-4-1.791-4-4v0-6.604c-0.216-0.020-0.428-0.063-0.647-0.063h-6.020c-2.209 0-4 1.791-4 4v0 18.667c0 2.209 1.791 4 4 4v0h13.333c2.209 0 4-1.791 4-4v0z"></path>
</symbol>
<symbol id="icon-members" viewBox="0 0 32 32">
<path d="M16 21.333c-2.946 0-5.333-2.388-5.333-5.333s2.388-5.333 5.333-5.333c2.946 0 5.333 2.388 5.333 5.333v0c0 2.946-2.388 5.333-5.333 5.333v0zM16 13.333c-1.473 0-2.667 1.194-2.667 2.667s1.194 2.667 2.667 2.667c1.473 0 2.667-1.194 2.667-2.667v0c0-1.473-1.194-2.667-2.667-2.667v0zM24 30.667c0-4.418-3.582-8-8-8s-8 3.582-8 8v0c0 0.736 0.597 1.333 1.333 1.333s1.333-0.597 1.333-1.333v0c0-2.946 2.388-5.333 5.333-5.333s5.333 2.388 5.333 5.333v0c0 0.736 0.597 1.333 1.333 1.333s1.333-0.597 1.333-1.333v0zM24 10.667c-2.946 0-5.333-2.388-5.333-5.333s2.388-5.333 5.333-5.333c2.946 0 5.333 2.388 5.333 5.333v0c0 2.946-2.388 5.333-5.333 5.333v0zM24 2.667c-1.473 0-2.667 1.194-2.667 2.667s1.194 2.667 2.667 2.667c1.473 0 2.667-1.194 2.667-2.667v0c0-1.473-1.194-2.667-2.667-2.667v0zM32 20c-0.005-4.416-3.584-7.995-8-8h-0c-0.736 0-1.333 0.597-1.333 1.333s0.597 1.333 1.333 1.333v0c2.946 0 5.333 2.388 5.333 5.333v0c0 0.736 0.597 1.333 1.333 1.333s1.333-0.597 1.333-1.333v0zM8 10.667c-2.946 0-5.333-2.388-5.333-5.333s2.388-5.333 5.333-5.333c2.946 0 5.333 2.388 5.333 5.333v0c0 2.946-2.388 5.333-5.333 5.333v0zM8 2.667c-1.473 0-2.667 1.194-2.667 2.667s1.194 2.667 2.667 2.667c1.473 0 2.667-1.194 2.667-2.667v0c0-1.473-1.194-2.667-2.667-2.667v0zM2.667 20c0-2.946 2.388-5.333 5.333-5.333v0c0.736 0 1.333-0.597 1.333-1.333s-0.597-1.333-1.333-1.333v0c-4.416 0.005-7.995 3.584-8 8v0c0 0.736 0.597 1.333 1.333 1.333s1.333-0.597 1.333-1.333v0z"></path>
</symbol>
<symbol id="icon-profile" viewBox="0 0 32 32">
<path d="M21.391 18.667h-10.781c-3.648 0.005-6.605 2.961-6.609 6.609v6.724h24v-6.724c-0.005-3.648-2.961-6.605-6.609-6.609h-0z"></path>
<path d="M24 8c0 4.418-3.582 8-8 8s-8-3.582-8-8c0-4.418 3.582-8 8-8s8 3.582 8 8z"></path>
</symbol>
</defs>
</svg>
