<svg aria-hidden="true" style="position: absolute; width: 0; height: 0; overflow: hidden;" version="1.1" xmlns="http://www.w3.org/2000/svg" xmlns:xlink="http://www.w3.org/1999/xlink">
<defs>
<symbol id="icon-exit" viewBox="0 0 32 32">
<path d="M4 4h6.667v-4h-6.667c-2.209 0-4 1.791-4 4v0 24c0 2.209 1.791 4 4 4v0h6.667v-4h-6.667z"></path>
<path d="M30.597 12.7l-6.115-6.115-2.828 2.829 4.551 4.549-19.539 0.036v4l19.6-0.036-4.621 4.621 2.828 2.829 6.116-6.115c0.845-0.846 1.368-2.014 1.368-3.304 0-1.286-0.519-2.451-1.36-3.296l0 0z"></path>
</symbol>
<symbol id="icon-courses" viewBox="0 0 32 32">
<path d="M22.667 18.667c0 0.736-0.597 1.333-1.333 1.333v0h-10.667c-0.736 0-1.333-0.597-1.333-1.333s0.597-1.333 1.333-1.333v0h10.667c0.736 0 1.333 0.597 1.333 1.333v0zM17.333 22.667h-6.667c-0.736 0-1.333 0.597-1.333 1.333s0.597 1.333 1.333 1.333v0h6.667c0.736 0 1.333-0.597 1.333-1.333s-0.597-1.333-1.333-1.333v0zM29.333 13.98v11.353c-0.005 3.68-2.987 6.662-6.666 6.667h-13.334c-3.68-0.005-6.662-2.987-6.667-6.666v-18.667c0.005-3.68 2.987-6.662 6.666-6.667h6.020c0.007-0 0.015-0 0.024-0 2.57 0 4.896 1.045 6.576 2.733l4.646 4.648c1.689 1.679 2.735 4.004 2.735 6.574 0 0.009 0 0.018-0 0.026v-0.001zM20.068 4.619c-0.408-0.395-0.868-0.74-1.368-1.023l-0.033-0.017v5.755c0 0.736 0.597 1.333 1.333 1.333v0h5.755c-0.3-0.533-0.645-0.993-1.043-1.402l0.001 0.002zM26.667 13.98c0-0.22-0.043-0.431-0.063-0.647h-6.604c-2.209 0-4-1.791-4-4v0-6.604c-0.216-0.020-0.428-0.063-0.647-0.063h-6.020c-2.209 0-4 1.791-4 4v0 18.667c0 2.209 1.791 4 4 4v0h13.333c2.209 0 4-1.791 4-4v0z"></path>
</symbol>
<symbol id="icon-managers" viewBox="0 0 32 32">
<path d="M25.333 5.333h-1.467c-0.646-3.063-3.325-5.329-6.533-5.333h-2.667c-3.209 0.004-5.887 2.271-6.526 5.29l-0.008 0.044h-1.467c-3.68 0.005-6.662 2.987-6.667 6.666v13.334c0.005 3.68 2.987 6.662 6.666 6.667h18.667c3.68-0.005 6.662-2.987 6.667-6.666v-13.334c-0.005-3.68-2.987-6.662-6.666-6.667h-0zM14.667 2.667h2.667c1.725 0.007 3.191 1.105 3.746 2.639l0.009 0.028h-10.176c0.564-1.562 2.030-2.659 3.754-2.667h0.001zM6.667 8h18.667c2.209 0 4 1.791 4 4v0 4h-26.667v-4c0-2.209 1.791-4 4-4v0zM25.333 29.333h-18.667c-2.209 0-4-1.791-4-4v0-6.667h12v1.333c0 0.736 0.597 1.333 1.333 1.333s1.333-0.597 1.333-1.333v0-1.333h12v6.667c0 2.209-1.791 4-4 4v0z"></path>
</symbol>
<symbol id="icon-members" viewBox="0 0 32 32">
<path d="M16 21.333c-2.946 0-5.333-2.388-5.333-5.333s2.388-5.333 5.333-5.333c2.946 0 5.333 2.388 5.333 5.333v0c0 2.946-2.388 5.333-5.333 5.333v0zM16 13.333c-1.473 0-2.667 1.194-2.667 2.667s1.194 2.667 2.667 2.667c1.473 0 2.667-1.194 2.667-2.667v0c0-1.473-1.194-2.667-2.667-2.667v0zM24 30.667c0-4.418-3.582-8-8-8s-8 3.582-8 8v0c0 0.736 0.597 1.333 1.333 1.333s1.333-0.597 1.333-1.333v0c0-2.946 2.388-5.333 5.333-5.333s5.333 2.388 5.333 5.333v0c0 0.736 0.597 1.333 1.333 1.333s1.333-0.597 1.333-1.333v0zM24 10.667c-2.946 0-5.333-2.388-5.333-5.333s2.388-5.333 5.333-5.333c2.946 0 5.333 2.388 5.333 5.333v0c0 2.946-2.388 5.333-5.333 5.333v0zM24 2.667c-1.473 0-2.667 1.194-2.667 2.667s1.194 2.667 2.667 2.667c1.473 0 2.667-1.194 2.667-2.667v0c0-1.473-1.194-2.667-2.667-2.667v0zM32 20c-0.005-4.416-3.584-7.995-8-8h-0c-0.736 0-1.333 0.597-1.333 1.333s0.597 1.333 1.333 1.333v0c2.946 0 5.333 2.388 5.333 5.333v0c0 0.736 0.597 1.333 1.333 1.333s1.333-0.597 1.333-1.333v0zM8 10.667c-2.946 0-5.333-2.388-5.333-5.333s2.388-5.333 5.333-5.333c2.946 0 5.333 2.388 5.333 5.333v0c0 2.946-2.388 5.333-5.333 5.333v0zM8 2.667c-1.473 0-2.667 1.194-2.667 2.667s1.194 2.667 2.667 2.667c1.473 0 2.667-1.194 2.667-2.667v0c0-1.473-1.194-2.667-2.667-2.667v0zM2.667 20c0-2.946 2.388-5.333 5.333-5.333v0c0.736 0 1.333-0.597 1.333-1.333s-0.597-1.333-1.333-1.333v0c-4.416 0.005-7.995 3.584-8 8v0c0 0.736 0.597 1.333 1.333 1.333s1.333-0.597 1.333-1.333v0z"></path>
</symbol>
<symbol id="icon-profile" viewBox="0 0 32 32">
<path d="M21.391 18.667h-10.781c-3.648 0.005-6.605 2.961-6.609 6.609v6.724h24v-6.724c-0.005-3.648-2.961-6.605-6.609-6.609h-0z"></path>
<path d="M24 8c0 4.418-3.582 8-8 8s-8-3.582-8-8c0-4.418 3.582-8 8-8s8 3.582 8 8z"></path>
</symbol>
<symbol id="icon-mentors" viewBox="0 0 32 32" >
<svg version="1.1" xmlns="http://www.w3.org/2000/svg" xmlns:xlink="http://www.w3.org/1999/xlink" x="0px" y="0px" viewBox="0 0 1000 1000" enable-background="new 0 0 1000 1000"  xml:space="preserve">
<g><path d="M495.4,990l-95.9-100.3l36.2-287.6h128.6l36.3,288.2L495.4,990z M441.5,875.9l55.3,57.8l61.6-58.4L529,642.1h-58.1L441.5,875.9z M898.2,927.3l-39.9-2.4l0.4-5.8c0.4-6.1,0.8-12.2,0.8-18.4c0-175.6-118.4-330.5-281.6-368.4l-2.4-0.7c-23.4-8.7-38-8.6-77.3-8.3l-22.4,0.1c-135.7,0-246.1-115.1-246.1-256.7C229.7,125.2,340.1,10,475.8,10c135.7,0,246.1,115.2,246.1,256.7c0,60.9-20.9,120-58.9,166.4L632,407.8c32.2-39.3,49.9-89.5,49.9-141.1C681.9,147.2,589.4,50,475.8,50c-113.6,0-206.1,97.2-206.1,216.7c0,119.5,92.5,216.7,206.1,216.7l22.1-0.1c40.2-0.3,60.7-0.4,90.2,10.4c180.5,42.5,311.3,213.5,311.3,407c0,7.1-0.4,14.1-0.9,21L898.2,927.3z M101.8,927.3l-0.4-5.6c-0.5-7-0.9-13.9-0.9-21c0-126.9,54.5-245.4,149.4-325.2l25.7,30.6c-85.9,72.2-135.2,179.5-135.2,294.6c0,6.2,0.4,12.3,0.8,18.4l0.4,5.8L101.8,927.3z"/></g>
</svg>
</symbol>
</defs>
</svg>
